<svg width="140" height="130" viewBox="3 0 90 82" class="looka-1j8o68f"><g id="SvgjsG1217" featurekey="tOsHRK-0" transform="matrix(1.1111573839030662,0,0,1.1111573839030662,-7.557313921649849,-14.556203374642926)" fill="#ffffff"><g xmlns="http://www.w3.org/2000/svg"><path fill="#ffffff" d="M57.177,50c0-3.957-3.22-7.176-7.177-7.176S42.824,46.043,42.824,50s3.219,7.177,7.176,7.177   S57.177,53.957,57.177,50z M44.824,50c0-2.854,2.322-5.176,5.176-5.176c2.854,0,5.177,2.322,5.177,5.176   c0,2.854-2.322,5.177-5.177,5.177C47.146,55.177,44.824,52.854,44.824,50z"></path><path fill="#ffffff" d="M50,14c-19.85,0-35.999,16.149-35.999,36S30.15,86,50,86c19.85,0,35.998-16.149,35.998-36S69.85,14,50,14z    M50,84c-18.747,0-33.999-15.252-33.999-34c0-18.748,15.252-34,33.999-34s33.998,15.252,33.998,34C83.998,68.748,68.747,84,50,84z"></path><path fill="#ffffff" d="M74.189,48.996c-0.553,0-1,0.448-1,1c0,12.791-10.405,23.196-23.195,23.196c-0.552,0-1,0.447-1,1   s0.448,1,1,1c13.892,0,25.195-11.303,25.195-25.196C75.189,49.443,74.742,48.996,74.189,48.996z"></path><path fill="#ffffff" d="M50.995,25.815c0-0.552-0.448-1-1-1c-13.885,0-25.181,11.296-25.181,25.181c0,0.552,0.448,1,1,1   s1-0.448,1-1c0-12.782,10.399-23.181,23.181-23.181C50.547,26.815,50.995,26.367,50.995,25.815z"></path></g></g></svg>