<svg xmlns="http://www.w3.org/2000/svg" viewBox="88 185 375 100">
  <g fill="#db275c" fill-rule="nonzero" stroke="none" stroke-width="1" stroke-linecap="butt" stroke-linejoin="miter" stroke-miterlimit="10" stroke-dasharray="" stroke-dashoffset="0" font-family="none" font-weight="none" font-size="none" text-anchor="none" style="mix-blend-mode: normal">
    <g data-paper-data="{&quot;isGlobalGroup&quot;:true,&quot;bounds&quot;:{&quot;x&quot;:90.48495734294201,&quot;y&quot;:190.57331788124927,&quot;width&quot;:369.03008531411604,&quot;height&quot;:88.8533642375015}}">
      <g data-paper-data="{&quot;isPrimaryText&quot;:true}">
        <path d="M106.0906,263.69099c-7.84617,-7.93287 -11.79093,-17.46965 -11.79093,-28.65369c0,-8.88655 2.60094,-16.86276 7.84617,-24.01535c5.15853,-7.02254 11.79093,-11.87763 19.98389,-14.52192c-3.33787,3.94476 -4.55165,8.49641 -3.55462,13.65494c0.99703,5.15853 3.77136,8.9299 8.40971,11.40079c-2.3842,1.34382 -4.2482,3.20783 -5.67872,5.59202c-1.43052,2.42754 -2.1241,5.07183 -2.1241,7.88952c0,4.46495 1.60391,8.19296 4.81174,11.27074c3.25118,3.07778 7.15259,4.5083 11.61753,4.20485c3.20783,0.30344 5.89546,1.64726 8.10626,4.03146c2.2108,2.3842 3.29452,5.24523 3.29452,8.49641c0,3.42457 -1.21377,6.3723 -3.64132,8.8432c-2.42754,2.47089 -5.37528,3.68467 -8.79985,3.72801c-11.09735,0 -20.59078,-3.98811 -28.4803,-11.92098zM142.41707,226.4542c2.08075,1.86401 3.29452,4.20485 3.68467,7.02254c0.43349,3.29452 -0.39014,6.24226 -2.51424,8.88655c-2.1241,2.64429 -4.81174,4.07481 -8.10626,4.3349c-3.42457,0.26009 -6.3723,-0.78028 -8.8432,-3.12113c-2.47089,-2.2975 -3.68467,-5.15853 -3.68467,-8.53975c0,-3.12113 1.08373,-5.80877 3.25118,-8.06292c2.2108,-2.3842 4.98514,-3.55462 8.32301,-3.55462c3.07778,0 5.72207,0.99703 7.88952,3.03443zM165.78218,203.65262c-6.67575,-6.7191 -14.60861,-10.83725 -23.84195,-12.39782c-13.52489,-2.25415 -25.48922,1.08373 -35.93633,10.01362c-4.81174,4.11816 -8.5831,9.05994 -11.31409,14.82536c-2.81769,5.98216 -4.20485,12.31112 -4.20485,18.94352c0,12.26777 4.29155,22.71488 12.918,31.38468c8.62645,8.6698 19.03021,13.0047 31.16794,13.0047c13.13475,0 24.10205,-4.94179 32.9019,-14.86871c8.79985,-9.92692 12.44116,-21.50111 10.92395,-34.72255c-1.17042,-10.18702 -5.37528,-18.90017 -12.61456,-26.1828z" data-paper-data="{&quot;glyphName&quot;:&quot;O&quot;,&quot;glyphIndex&quot;:0,&quot;firstGlyphOfWord&quot;:true,&quot;word&quot;:1}">
        </path>
        <path d="M262.75391,240.71602c-1.21377,-0.99703 -3.77136,-3.42457 -7.62942,-7.36933l-6.15556,-6.06886c0,-13.52489 0,-20.54743 0.04335,-21.11097c0.13005,-3.33787 1.43052,-6.11221 3.81471,-8.40971c2.3842,-2.2975 5.24523,-3.42457 8.5831,-3.42457c3.42457,0 6.3723,1.21377 8.79985,3.64132c2.42754,2.47089 3.64132,5.41863 3.64132,8.8432l0.0867,28.3936c0,2.60094 -0.39014,4.5083 -1.12707,5.76542c-0.91033,1.51722 -2.42754,2.2975 -4.59499,2.2975c-1.56056,0 -3.38122,-0.86698 -5.46197,-2.55759zM218.01773,263.2575c0,3.42457 -1.21377,6.3723 -3.64132,8.8432c-2.42754,2.42754 -5.37528,3.64132 -8.79985,3.64132c-2.81769,0 -5.33193,-0.86698 -7.54273,-2.55759c-2.25415,-1.73396 -3.72801,-3.94476 -4.46495,-6.67575c-0.34679,-1.30047 -0.52019,-2.3842 -0.52019,-3.29452c-0.04335,-3.16448 -0.04335,-11.09735 0,-23.71191v-6.28561c0.13005,-2.3842 0.65024,-4.07481 1.64726,-5.15853c0.82363,-0.91033 2.08075,-1.47387 3.77136,-1.77731c2.2975,-0.34679 6.76244,2.86103 13.35149,9.58013c0.60689,0.60689 2.68764,2.68764 6.19891,6.28561zM272.76753,195.37296c-3.16448,-3.16448 -6.93584,-4.72504 -11.35744,-4.72504c-4.29155,0 -8.01957,1.47387 -11.09735,4.46495c-3.07778,2.94773 -4.72504,6.58905 -4.94179,10.92395c-0.04335,0.1734 -0.04335,6.06886 -0.04335,17.64305l-27.96011,-27.74336c-3.20783,-3.51127 -7.19593,-5.28858 -11.92098,-5.28858c-4.11816,0 -7.67277,1.38717 -10.75055,4.1615c-3.42457,3.12113 -5.20188,7.02254 -5.28858,11.66088l-0.04335,0.1734c0,34.46246 0,53.36263 0.04335,56.6138c0,1.21377 0.21675,2.60094 0.65024,4.20485c0.95368,3.51127 2.86103,6.41565 5.76542,8.62645c2.90438,2.2108 6.15556,3.33787 9.75353,3.33787c4.4216,0 8.19296,-1.56056 11.35744,-4.72504c3.16448,-3.16448 4.72504,-6.97919 4.72504,-11.44414v-17.38295l26.83303,27.35322c3.25118,3.33787 7.19593,5.15853 11.83428,5.41863c4.63834,0.26009 8.62645,-1.12707 11.96433,-4.11816c3.51127,-3.16448 5.24523,-7.15259 5.28858,-11.92098c-0.04335,-37.0634 -0.0867,-55.66012 -0.0867,-55.79017c0,-4.46495 -1.56056,-8.27966 -4.72504,-11.44414z" data-paper-data="{&quot;glyphName&quot;:&quot;N&quot;,&quot;glyphIndex&quot;:1,&quot;word&quot;:1}">
        </path>
        <path d="M358.902,263.56095c0,0.0867 -0.04335,0.30344 -0.0867,0.65024c-0.04335,0.34679 -0.0867,0.56354 -0.13005,0.60689c0,0.13005 -0.04335,0.34679 -0.13005,0.69358c-0.0867,0.30344 -0.13005,0.52019 -0.1734,0.56354l-0.21675,0.69358c-0.13005,0.34679 -0.21675,0.52019 -0.21675,0.56354l-0.30344,0.65024c-0.1734,0.34679 -0.26009,0.52019 -0.26009,0.52019c-0.04335,0.13005 -0.1734,0.34679 -0.39014,0.69358c-0.21675,0.34679 -0.30344,0.52019 -0.26009,0.47684l-0.52019,0.69358c-0.30344,0.39014 -0.39014,0.52019 -0.30344,0.39014l-0.91033,0.99703c-0.91033,0.95368 -1.99405,1.73396 -3.16448,2.3842c-2.0374,1.08373 -4.1615,1.64726 -6.459,1.64726c-1.86401,0 -3.72801,-0.39014 -5.50532,-1.21377c-1.51722,-0.69358 -2.90438,-1.64726 -4.07481,-2.81769c-14.17512,-14.08843 -22.06464,-21.80455 -23.58186,-23.23507c-1.99405,-1.69061 -4.63834,-2.81769 -7.97622,-3.33787c-3.25118,-0.34679 -6.19891,0.1734 -8.8432,1.51722c-2.90438,1.47387 -4.72504,3.64132 -5.46197,6.5457v-36.41316c0.39014,4.81174 3.46792,7.54273 9.18999,8.19296c5.33193,0.65024 9.66683,-0.52019 13.0914,-3.46792c0.95368,-0.82363 4.85509,-4.59499 11.70423,-11.40079l11.87763,-11.83428c2.64429,-2.68764 5.85212,-4.03146 9.58013,-4.03146c3.77136,0 6.97919,1.34382 9.62348,4.03146c2.64429,2.64429 3.98811,5.89546 3.98811,9.66683c0,3.77136 -1.34382,7.02254 -3.98811,9.66683c0.04335,-0.04335 -0.39014,0.39014 -1.30047,1.30047l-3.46792,3.42457l-10.9673,10.9673l-0.86698,0.86698l-0.82363,0.82363l17.4263,17.38295c-0.13005,-0.13005 -0.04335,-0.04335 0.21675,0.26009c0.1734,0.1734 0.26009,0.26009 0.26009,0.26009l0.13005,0.13005l0.13005,0.1734l0.39014,0.47684c0.13005,0.1734 0.30344,0.34679 0.43349,0.56354c0.13005,0.21675 0.21675,0.39014 0.34679,0.52019l0.34679,0.60689l0.30344,0.56354l0.26009,0.65024c0.13005,0.21675 0.21675,0.43349 0.26009,0.56354l0.21675,0.65024l0.1734,0.60689c0.04335,0.13005 0.13005,0.34679 0.1734,0.65024l0.13005,0.60689c0.04335,0.13005 0.04335,0.34679 0.0867,0.65024c0.04335,0.30344 0.04335,0.47684 0.0867,0.60689v0.69358c0.04335,0.30344 0.04335,0.52019 0.04335,0.60689c0,0.13005 0,0.34679 -0.04335,0.69358c-0.04335,0.30344 -0.04335,0.52019 -0.04335,0.60689zM352.78979,225.02368l3.29452,-3.29452l1.43052,-1.43052c0,0 0,0 0.04335,-0.04335c3.38122,-3.38122 5.07183,-7.45603 5.07183,-12.26777c0,-4.81174 -1.69061,-8.88655 -5.07183,-12.26777c-3.33787,-3.38122 -7.41268,-5.07183 -12.18107,-5.07183c-4.72504,0 -8.79985,1.69061 -12.13772,5.07183l-12.52786,12.48451c0,-4.98514 -1.73396,-9.14664 -5.15853,-12.57121c-3.33787,-3.33787 -7.36933,-4.98514 -12.09437,-4.98514c-4.72504,0 -8.79985,1.69061 -12.18107,5.07183c-3.33787,3.38122 -5.02848,7.45603 -5.02848,12.26777v54.09956c0,4.81174 1.69061,8.88655 5.02848,12.26777c3.38122,3.38122 7.45603,5.07183 12.18107,5.07183c4.72504,0 8.79985,-1.69061 12.13772,-5.02848c3.42457,-3.42457 5.11518,-7.58608 5.11518,-12.48451l12.52786,12.44116c3.33787,3.38122 7.41268,5.07183 12.13772,5.07183c4.76839,0 8.8432,-1.69061 12.18107,-5.07183c3.38122,-3.38122 5.07183,-7.45603 5.07183,-12.26777c0,-4.81174 -1.69061,-8.88655 -5.07183,-12.26777c0,0 0,0 -0.04335,-0.04335l-14.78201,-14.73866z" data-paper-data="{&quot;glyphName&quot;:&quot;K&quot;,&quot;glyphIndex&quot;:2,&quot;word&quot;:1}">
        </path>
        <path d="M374.94113,208.03087c0,-3.77136 1.34382,-7.02254 3.98811,-9.71018c2.68764,-2.64429 5.89546,-3.98811 9.66683,-3.98811c3.77136,0 6.97919,1.30047 9.71018,3.90141c2.68764,2.64429 4.03146,5.72207 4.03146,9.32004v47.944c0,6.3723 1.60391,11.44414 4.85509,15.25885c2.47089,2.90438 5.20188,4.59499 8.19296,4.98514c-11.14069,0 -20.67748,-3.98811 -28.61034,-11.92098c-7.88952,-7.93287 -11.83428,-17.55635 -11.83428,-28.78374zM429.86432,195.89315c-3.33787,3.42457 -5.02848,7.49938 -5.02848,12.13772v27.00643c0,2.64429 -0.91033,4.85509 -2.77434,6.7191c-1.86401,1.86401 -4.07481,2.77434 -6.67575,2.77434c-2.60094,0 -4.81174,-0.91033 -6.6324,-2.77434c-1.86401,-1.86401 -2.77434,-4.07481 -2.77434,-6.7191v-27.00643c0,-4.63834 -1.69061,-8.6698 -5.02848,-12.09437c-3.42457,-3.51127 -7.54273,-5.28858 -12.35447,-5.28858c-4.76839,0 -8.8432,1.69061 -12.22442,5.11518c-3.38122,3.38122 -5.07183,7.45603 -5.07183,12.26777v27.00643c0,12.22442 4.29155,22.67153 12.918,31.38468c8.62645,8.6698 19.03021,13.0047 31.16794,13.0047c12.18107,0 22.54148,-4.3349 31.16794,-13.0047c8.62645,-8.71315 12.96135,-19.16026 12.96135,-31.38468v-27.00643c0,-4.81174 -1.69061,-8.88655 -5.07183,-12.26777c-3.38122,-3.42457 -7.45603,-5.11518 -12.22442,-5.11518c-4.81174,0 -8.9299,1.73396 -12.35447,5.24523z" data-paper-data="{&quot;glyphName&quot;:&quot;U&quot;,&quot;glyphIndex&quot;:3,&quot;lastGlyphOfWord&quot;:true,&quot;word&quot;:1}">
        </path>
      </g>
    </g>
  </g>
</svg>