<svg width="396" height="128.3092773193769" viewBox="4 0 250 81.00333164102076" class="looka-1j8o68f"><defs id="SvgjsDefs1216"></defs><g id="SvgjsG1217" featurekey="tOsHRK-0" transform="matrix(1.1111573839030662,0,0,1.1111573839030662,-7.557313921649849,-14.556203374642926)" fill="#ffffff"><g xmlns="http://www.w3.org/2000/svg"><path fill="#ffffff" d="M57.177,50c0-3.957-3.22-7.176-7.177-7.176S42.824,46.043,42.824,50s3.219,7.177,7.176,7.177   S57.177,53.957,57.177,50z M44.824,50c0-2.854,2.322-5.176,5.176-5.176c2.854,0,5.177,2.322,5.177,5.176   c0,2.854-2.322,5.177-5.177,5.177C47.146,55.177,44.824,52.854,44.824,50z"></path><path fill="#ffffff" d="M50,14c-19.85,0-35.999,16.149-35.999,36S30.15,86,50,86c19.85,0,35.998-16.149,35.998-36S69.85,14,50,14z    M50,84c-18.747,0-33.999-15.252-33.999-34c0-18.748,15.252-34,33.999-34s33.998,15.252,33.998,34C83.998,68.748,68.747,84,50,84z"></path><path fill="#ffffff" d="M74.189,48.996c-0.553,0-1,0.448-1,1c0,12.791-10.405,23.196-23.195,23.196c-0.552,0-1,0.447-1,1   s0.448,1,1,1c13.892,0,25.195-11.303,25.195-25.196C75.189,49.443,74.742,48.996,74.189,48.996z"></path><path fill="#ffffff" d="M50.995,25.815c0-0.552-0.448-1-1-1c-13.885,0-25.181,11.296-25.181,25.181c0,0.552,0.448,1,1,1   s1-0.448,1-1c0-12.782,10.399-23.181,23.181-23.181C50.547,26.815,50.995,26.367,50.995,25.815z"></path></g></g><g id="SvgjsG1218" featurekey="dVtZHI-0" transform="matrix(5.112471087500049,0,0,5.112471087500049,100.00010185500747,-21.67688111648081)" fill="#ffffff"><path d="M6.98 4.58 l-0.000019531 11.56 c0 0.36 0.0066602 0.76 0.02 1.2 s0.02 0.66666 0.02 0.68 c-0.02666 -0.04 -0.12332 -0.25666 -0.28998 -0.65 s-0.33 -0.74334 -0.49 -1.05 l-0.28 -0.54 l-0.72 0 l2.2 4.22 l0.18 0 l0 -15.42 l-0.64 0 z M1.36 7.9399999999999995 l0.27998 0.54 l0.72 0 l-2.22 -4.24 l-0.14 0 l0 15.46 l0.62 0 l0 -11.6 c0 -0.33334 -0.0066602 -0.72334 -0.02 -1.17 s-0.02 -0.67666 -0.02 -0.69 c0.01334 0.04 0.10668 0.26 0.28002 0.66 s0.34 0.74666 0.5 1.04 z M12.780000000000001 13.36 l3.96 6.64 l0.78 0 l-4.34 -7.28 z M12.860000000000001 12.14 l4.48 -7.84 l-0.8 0 l-5.64 9.94 l0 -9.98 l-0.68 0 l0 11.24 l0.68 0 l0 -0.02 l1.54 -2.68 z M28.86 4.26 l0 10.64 c0 1.4 -0.37 2.48 -1.11 3.24 s-1.6233 1.1733 -2.65 1.24 l0 0.25 l0 0.07 l0 0.3 c1.28 -0.08 2.3066 -0.55334 3.08 -1.42 s1.16 -2.0934 1.16 -3.68 l0 -10.64 l-0.48 0 z M24.36 19.39998 c-1.04 -0.08 -1.9067 -0.5 -2.6 -1.26 s-1.04 -1.84 -1.04 -3.24 l0 -10.64 l-0.6 0 l0 10.64 c0 1.6 0.38334 2.83 1.15 3.69 s1.7967 1.33 3.09 1.41 l0 -0.29 l0 -0.31 z"></path></g></svg>